<svg width="48" height="48" viewBox="0 0 48 48" fill="none" xmlns="http://www.w3.org/2000/svg">
<g clip-path="url(#clip0_16_686)">
<path fill-rule="evenodd" clip-rule="evenodd" d="M23.2588 18.7072L19.7971 16.6649C19.7071 16.6147 19.6283 16.5468 19.5652 16.4654C19.5021 16.3839 19.4561 16.2906 19.4299 16.191C19.4038 16.0914 19.3979 15.9875 19.4128 15.8856C19.4277 15.7836 19.463 15.6858 19.5166 15.5978C19.5702 15.5098 19.641 15.4336 19.7248 15.3736C19.8085 15.3137 19.9035 15.2712 20.0041 15.2488C20.1046 15.2264 20.2086 15.2245 20.3099 15.2432C20.4112 15.262 20.5077 15.3009 20.5936 15.3578L24.0246 17.4001L23.2588 18.7072Z" fill="#AECBFA"/>
<path fill-rule="evenodd" clip-rule="evenodd" d="M23.5204 22.2307L16.546 18.1971C16.4588 18.1468 16.3824 18.0799 16.3211 18.0001C16.2598 17.9202 16.2149 17.8291 16.1888 17.732C16.1361 17.5357 16.1636 17.3265 16.2651 17.1504C16.3667 16.9744 16.534 16.8459 16.7303 16.7933C16.9266 16.7406 17.1358 16.7681 17.3118 16.8696L23.5204 20.4641V22.2307Z" fill="#AECBFA"/>
<path fill-rule="evenodd" clip-rule="evenodd" d="M31.7676 17.1443C31.6638 16.9778 31.5008 16.8567 31.3113 16.8056C31.1218 16.7544 30.92 16.777 30.7465 16.8686L24.7727 20.2793V18.6965L28.2344 16.6542C28.4014 16.5506 28.5215 16.386 28.5691 16.1954C28.6168 16.0047 28.5883 15.803 28.4897 15.633C28.3844 15.468 28.2199 15.3496 28.0299 15.3022C27.84 15.2547 27.6392 15.2817 27.4686 15.3777L23.6494 17.6039C23.5284 17.6749 23.428 17.7764 23.3581 17.8982C23.2883 18.02 23.2514 18.1579 23.2512 18.2982V33.1458C23.2387 33.2531 23.2491 33.3619 23.2817 33.4649C23.3142 33.5679 23.3682 33.6628 23.44 33.7435C23.5119 33.8242 23.6 33.8887 23.6986 33.9329C23.7971 33.9771 23.9039 34 24.012 34C24.12 34 24.2268 33.9771 24.3254 33.9329C24.4239 33.8887 24.512 33.8242 24.5839 33.7435C24.6557 33.6628 24.7097 33.5679 24.7422 33.4649C24.7748 33.3619 24.7852 33.2531 24.7727 33.1458V22.0561L31.4817 18.1961C31.658 18.0936 31.7869 17.9257 31.8404 17.7289C31.8939 17.532 31.8678 17.3221 31.7676 17.1443Z" fill="#669DF6"/>
<path d="M24.0189 15.7155C24.4926 15.7155 24.8767 15.3315 24.8767 14.8578C24.8767 14.384 24.4926 14 24.0189 14C23.5452 14 23.1611 14.384 23.1611 14.8578C23.1611 15.3315 23.5452 15.7155 24.0189 15.7155Z" fill="#669DF6"/>
<path d="M21.4366 22.7523C21.5539 22.8164 21.6519 22.9109 21.7202 23.0259C21.7884 23.1409 21.8245 23.2721 21.8246 23.4058V27.5722C21.8253 27.7074 21.7896 27.8403 21.7213 27.9571C21.6531 28.0738 21.5547 28.1701 21.4366 28.2359C21.3209 28.3004 21.1912 28.3355 21.0588 28.338C20.9233 28.3344 20.7905 28.2994 20.6707 28.2359L16.2593 25.6932C16.0833 25.5917 15.9548 25.4243 15.9022 25.2281C15.8495 25.0318 15.877 24.8226 15.9785 24.6466C16.0801 24.4705 16.2474 24.342 16.4437 24.2894C16.64 24.2367 16.8492 24.2642 17.0252 24.3657L20.2929 26.2447V23.8552L18.8122 23.0076C18.6438 22.9055 18.5211 22.7424 18.4698 22.5523C18.4184 22.3621 18.4423 22.1594 18.5365 21.9864C18.6368 21.816 18.7999 21.6917 18.9908 21.6401C19.1817 21.5886 19.3852 21.6139 19.5577 21.7107L21.4366 22.7523Z" fill="#AECBFA"/>
<path d="M17.1244 22.0144C17.5981 22.0144 17.9821 21.6303 17.9821 21.1566C17.9821 20.6829 17.5981 20.2988 17.1244 20.2988C16.6506 20.2988 16.2666 20.6829 16.2666 21.1566C16.2666 21.6303 16.6506 22.0144 17.1244 22.0144Z" fill="#AECBFA"/>
<path d="M28.4428 21.6783C28.6152 21.5815 28.8187 21.5561 29.0096 21.6077C29.2005 21.6592 29.3636 21.7835 29.4639 21.954C29.5581 22.127 29.582 22.3296 29.5306 22.5198C29.4793 22.71 29.3567 22.873 29.1882 22.9751L27.7075 23.8227V26.2122L30.9752 24.3333C31.0624 24.283 31.1586 24.2503 31.2584 24.2372C31.3581 24.2241 31.4595 24.2308 31.5567 24.2569C31.6539 24.283 31.745 24.3279 31.8248 24.3892C31.9046 24.4505 31.9716 24.5269 32.0219 24.6141C32.0722 24.7012 32.1048 24.7975 32.1179 24.8972C32.131 24.997 32.1243 25.0984 32.0983 25.1956C32.0722 25.2928 32.0272 25.3839 31.9659 25.4637C31.9047 25.5435 31.8282 25.6105 31.7411 25.6608L27.3297 28.2034C27.21 28.267 27.0771 28.3019 26.9417 28.3056C26.8092 28.303 26.6795 28.268 26.5638 28.2034C26.4457 28.1376 26.3473 28.0414 26.2791 27.9246C26.2108 27.8079 26.1752 27.6749 26.1758 27.5397V23.404C26.1759 23.2703 26.212 23.1391 26.2803 23.0241C26.3485 22.9091 26.4465 22.8146 26.5638 22.7505L28.4428 21.6783Z" fill="#4285F4"/>
<path d="M30.8944 22.0144C31.3681 22.0144 31.7522 21.6303 31.7522 21.1566C31.7522 20.6829 31.3681 20.2988 30.8944 20.2988C30.4207 20.2988 30.0366 20.6829 30.0366 21.1566C30.0366 21.6303 30.4207 22.0144 30.8944 22.0144Z" fill="#4285F4"/>
</g>
<defs>
<clipPath id="clip0_16_686">
<rect x="4" y="4" width="40" height="40" rx="20" fill="white"/>
</clipPath>
</defs>
</svg>
